<?xml version="1.0" encoding="utf-8"?>
<!-- Generator: Adobe Illustrator 19.2.1, SVG Export Plug-In . SVG Version: 6.00 Build 0)  -->
<svg version="1.1" id="Layer_1" xmlns="http://www.w3.org/2000/svg" xmlns:xlink="http://www.w3.org/1999/xlink" x="0px" y="0px"
	 viewBox="0 0 413.2 229.2" style="enable-background:new 0 0 413.2 229.2;" xml:space="preserve">
<style type="text/css">
	.st0{fill:#FFFFFF;}
</style>
<g>
	<g>
		<g>
			<path class="st0" d="M413.2,229.2H0V0h413.2V229.2z M6.7,222.4h399.7V6.7H6.7V222.4z"/>
		</g>
		<path class="st0" d="M45.3,42.5h32.4V51H66.5v32.7H56.4V51H45.3V42.5z"/>
		<path class="st0" d="M92.6,83.7h-9.9v-43h9.9v15.4c0.7-1.2,1.8-2.1,3.3-2.9c1.5-0.7,3.1-1.1,4.9-1.1c3.5,0,6.2,1,8,3.1
			c1.9,2.1,2.8,4.9,2.8,8.5v19.9h-9.9V65.3c0-1.5-0.4-2.6-1.1-3.4c-0.8-0.8-1.9-1.2-3.3-1.2c-3.1,0-4.7,1.6-4.7,4.7V83.7z"/>
		<path class="st0" d="M145.8,71.4h-19.2v0.7c0,1.6,0.5,2.9,1.4,3.9c0.9,1,2.2,1.5,3.9,1.5c2.5,0,4.2-1,5-2.9h8.7
			c-0.5,2.9-2.1,5.2-4.7,7.1c-2.6,1.9-5.6,2.8-9.1,2.8c-4.5,0-8.1-1.2-10.8-3.7c-2.7-2.5-4-5.9-4-10.2v-3.8c0-4.4,1.3-7.9,3.9-10.5
			c2.6-2.6,6.2-3.9,10.7-3.9c4.5,0,7.9,1.3,10.4,3.9s3.7,5.8,3.7,9.7V71.4z M126.6,65v0.6h10.1v-1.1c0-1.6-0.4-2.9-1.3-3.9
			c-0.8-1-2.1-1.5-3.7-1.5C128.3,59.2,126.6,61.1,126.6,65z"/>
		<path class="st0" d="M71.7,134.3l-7-12.2h-6.7v12.2H47.9V93.1h19.4c4.9,0,8.7,1.3,11.4,4c2.7,2.7,4.1,6.2,4.1,10.5
			c0,2.9-0.7,5.5-2,7.7c-1.4,2.2-3.2,3.9-5.6,5.1l8.4,13.9H71.7z M72.6,107.7c0-2-0.6-3.6-1.7-4.8c-1.1-1.2-2.7-1.8-4.8-1.8h-8.1
			V114h8.1c2.1,0,3.7-0.6,4.8-1.7C72,111.2,72.6,109.7,72.6,107.7z"/>
		<path class="st0" d="M115.9,122H96.7v0.7c0,1.6,0.5,2.9,1.4,3.9c0.9,1,2.2,1.5,3.9,1.5c2.5,0,4.2-1,5-2.9h8.7
			c-0.5,2.9-2.1,5.2-4.7,7.1c-2.6,1.9-5.6,2.8-9.1,2.8c-4.5,0-8.1-1.2-10.8-3.7c-2.7-2.5-4-5.9-4-10.2v-3.8c0-4.4,1.3-7.9,3.9-10.5
			c2.6-2.6,6.2-3.9,10.7-3.9c4.5,0,7.9,1.3,10.4,3.9c2.5,2.6,3.7,5.8,3.7,9.7V122z M96.7,115.6v0.6h10.1v-1.1c0-1.6-0.4-2.9-1.3-3.9
			c-0.8-1-2.1-1.5-3.7-1.5C98.4,109.7,96.7,111.7,96.7,115.6z"/>
		<path class="st0" d="M133.2,134.3h-9.9v-23.2h-3.6v-7.7h3.6v-2.2c0-3.5,0.8-6,2.3-7.6c1.5-1.6,4.1-2.4,7.7-2.4h5.8v7.8h-3.2
			c-0.9,0-1.6,0.2-2,0.6c-0.4,0.4-0.6,1-0.6,1.9v1.8h5.5v7.7h-5.5V134.3z"/>
		<path class="st0" d="M161.9,103.4h9.9v30.9h-9.5v-3.6c-1.6,2.9-4.5,4.3-8.6,4.3c-3.4,0-6-1-7.8-3.1c-1.8-2.1-2.7-4.9-2.7-8.5
			v-19.9h9.9v18.7c0,1.5,0.4,2.6,1.1,3.4c0.7,0.8,1.8,1.2,3.1,1.2c3.1,0,4.6-1.6,4.6-4.7V103.4z"/>
		<path class="st0" d="M208.2,103.4v29.9c0,3.4-1.4,6.2-4.3,8.5c-2.9,2.3-6.6,3.4-11.1,3.4c-3.8,0-7.2-0.9-10-2.7
			c-2.8-1.8-4.5-4.2-5-7.2h9.6c0.7,1.7,2.5,2.5,5.4,2.5c1.7,0,3.1-0.4,4.1-1.3c1-0.9,1.5-2.1,1.5-3.5v-3.7c-0.8,0.9-1.9,1.7-3.4,2.4
			c-1.5,0.6-3,1-4.7,1c-4,0-7.2-1.3-9.4-3.8c-2.2-2.5-3.3-5.6-3.3-9.1v-4.2c0-3.7,1.1-6.7,3.3-9.2c2.2-2.5,5.4-3.7,9.4-3.7
			c2,0,3.7,0.4,5.3,1.2c1.6,0.8,2.6,1.7,3.2,2.7v-3.2H208.2z M198.4,116.1c0-1.7-0.5-3-1.6-3.9c-1.1-0.9-2.4-1.4-3.9-1.4
			c-1.8,0-3.2,0.5-4.1,1.5c-0.9,1-1.4,2.4-1.4,4v2.9c0,1.7,0.5,3,1.4,4c0.9,1,2.3,1.5,4,1.5c1.7,0,3-0.5,4.1-1.4
			c1-1,1.5-2.3,1.5-3.9V116.1z"/>
		<path class="st0" d="M242.7,122h-19.2v0.7c0,1.6,0.5,2.9,1.4,3.9c0.9,1,2.2,1.5,3.9,1.5c2.5,0,4.2-1,5-2.9h8.7
			c-0.5,2.9-2.1,5.2-4.7,7.1c-2.6,1.9-5.6,2.8-9.1,2.8c-4.5,0-8.1-1.2-10.8-3.7c-2.7-2.5-4-5.9-4-10.2v-3.8c0-4.4,1.3-7.9,3.9-10.5
			c2.6-2.6,6.2-3.9,10.7-3.9c4.5,0,7.9,1.3,10.4,3.9c2.5,2.6,3.7,5.8,3.7,9.7V122z M223.6,115.6v0.6h10.1v-1.1
			c0-1.6-0.4-2.9-1.3-3.9c-0.8-1-2.1-1.5-3.7-1.5C225.3,109.7,223.6,111.7,223.6,115.6z"/>
		<path class="st0" d="M276.2,122H257v0.7c0,1.6,0.5,2.9,1.4,3.9c0.9,1,2.2,1.5,3.9,1.5c2.5,0,4.2-1,5-2.9h8.7
			c-0.5,2.9-2.1,5.2-4.7,7.1c-2.6,1.9-5.6,2.8-9.1,2.8c-4.5,0-8.1-1.2-10.8-3.7c-2.7-2.5-4-5.9-4-10.2v-3.8c0-4.4,1.3-7.9,3.9-10.5
			c2.6-2.6,6.2-3.9,10.7-3.9c4.5,0,7.9,1.3,10.4,3.9c2.5,2.6,3.7,5.8,3.7,9.7V122z M257,115.6v0.6h10.1v-1.1c0-1.6-0.4-2.9-1.3-3.9
			c-0.8-1-2.1-1.5-3.7-1.5C258.7,109.7,257,111.7,257,115.6z"/>
		<path class="st0" d="M82.9,184.9h-9.7l-15.4-24.1v24.1h-9.9v-41.2h9.6L73,167.7v-24.1h9.9V184.9z"/>
		<path class="st0" d="M119.4,184.9h-9.5v-2.6c-1.9,2.2-4.9,3.3-9.1,3.3c-3.5,0-6.3-0.9-8.3-2.7c-2-1.8-3-4.1-3-7
			c0-3.1,1.1-5.5,3.2-7.1c2.1-1.6,5.1-2.5,8.7-2.5c3.5,0,6.2,0.8,8.1,2.3V165c0-1.2-0.4-2.1-1.1-2.9c-0.8-0.7-1.8-1.1-3.1-1.1
			c-2.2,0-3.7,0.7-4.5,2.2h-9c0.6-3.1,2.2-5.5,4.7-7.3c2.5-1.7,5.5-2.6,9.1-2.6c4.4,0,7.8,1.1,10.2,3.3c2.5,2.2,3.7,5.2,3.7,9V184.9
			z M104.1,179.3c1.5,0,2.8-0.3,3.9-1c1-0.7,1.6-1.5,1.6-2.6c0-1-0.5-1.9-1.5-2.6c-1-0.7-2.3-1-3.8-1c-3.7,0-5.5,1.2-5.5,3.6
			c0,1.1,0.5,2,1.5,2.6C101.2,179,102.5,179.3,104.1,179.3z"/>
		<path class="st0" d="M127.4,145.7h9.9v8.3h5.9v7.7h-5.9v13.1c0,1.4,0.7,2.1,2.2,2.1h3.2v8h-6.5c-2.9,0-5.1-0.8-6.6-2.4
			c-1.5-1.6-2.2-3.8-2.2-6.7v-14.1h-4V154h4V145.7z"/>
		<path class="st0" d="M150,149.9c-1-0.9-1.5-2.2-1.5-3.7c0-1.6,0.5-2.8,1.5-3.7c1-0.9,2.3-1.4,4-1.4c1.6,0,3,0.5,4,1.4
			c1,0.9,1.5,2.2,1.5,3.7c0,1.6-0.5,2.8-1.5,3.7c-1,0.9-2.3,1.4-4,1.4C152.3,151.2,151,150.8,150,149.9z M158.9,184.9H149V154h9.9
			V184.9z"/>
		<path class="st0" d="M195,167.4v4.1c0,4.2-1.3,7.5-4,10.2c-2.7,2.6-6.3,3.9-11,3.9s-8.3-1.3-11-3.9c-2.7-2.6-4-6-4-10.2v-4.1
			c0-4.2,1.3-7.5,4-10.2c2.7-2.6,6.3-3.9,11-3.9s8.3,1.3,11,3.9C193.7,159.8,195,163.2,195,167.4z M185.4,166.8
			c0-1.7-0.5-3.1-1.4-4.1c-0.9-1.1-2.3-1.6-4.1-1.6c-1.8,0-3.2,0.5-4.1,1.6c-0.9,1.1-1.4,2.4-1.4,4.1v5.2c0,1.7,0.5,3.1,1.4,4.1
			c0.9,1.1,2.3,1.6,4.1,1.6c1.8,0,3.2-0.5,4.1-1.6c0.9-1.1,1.4-2.4,1.4-4.1V166.8z"/>
		<path class="st0" d="M210.7,184.9h-9.9V154h9.5v3.6c1.6-2.9,4.5-4.3,8.6-4.3c3.5,0,6.2,1,8,3.1c1.9,2.1,2.8,4.9,2.8,8.5v19.9h-9.9
			v-18.4c0-1.5-0.4-2.6-1.1-3.4c-0.8-0.8-1.9-1.2-3.3-1.2c-3.1,0-4.7,1.6-4.7,4.7V184.9z"/>
	</g>
</g>
</svg>
