<?xml version="1.0" encoding="UTF-8" standalone="no"?>
<svg width="145px" height="81px" viewBox="0 0 145 81" version="1.1" xmlns="http://www.w3.org/2000/svg" xmlns:xlink="http://www.w3.org/1999/xlink">
    <!-- Generator: Sketch 40.3 (33839) - http://www.bohemiancoding.com/sketch -->
    <title>Logo</title>
    <desc>Created with Sketch.</desc>
    <defs>
        <polygon id="path-1" points="0 79.9398523 144.86916 79.9398523 144.86916 0.0816287224 0 0.0816287224"></polygon>
    </defs>
    <g id="Page-1" stroke="none" stroke-width="1" fill="none" fill-rule="evenodd">
        <g id="Desktop-Copy-2" transform="translate(-48.000000, -46.000000)">
            <g id="Group-2" transform="translate(48.000000, 46.000000)">
                <g id="Logo">
                    <path d="M0,80.0458758 L144.869349,80.0458758 L144.869349,0.187652235 L0,0.187652235 L0,80.0458758 Z M2.36304688,77.6970328 L142.505924,77.6970328 L142.505924,2.53649527 L2.36304688,2.53649527 L2.36304688,77.6970328 Z" id="Fill-1" fill="#FFFFFF"></path>
                    <polygon id="Fill-2" fill="#FFFFFF" points="15.8765749 14.9996249 27.2305658 14.9996249 27.2305658 17.9748511 23.3291595 17.9748511 23.3291595 29.3621517 19.7783587 29.3621517 19.7783587 17.9748511 15.8765749 17.9748511"></polygon>
                    <g id="Group-31" transform="translate(0.000000, 0.106024)">
                        <path d="M32.4530957,29.2561845 L28.9849902,29.2561845 L28.9849902,14.2781584 L32.4530957,14.2781584 L32.4530957,19.6538319 C32.7009928,19.2434365 33.0859603,18.9084773 33.6091309,18.6483913 C34.1319238,18.3886806 34.7032389,18.2584499 35.3225098,18.2584499 C36.5472689,18.2584499 37.4865592,18.6211817 38.1403809,19.3458946 C38.7940137,20.0711705 39.1210189,21.0627249 39.1210189,22.3211208 L39.1210189,29.2561845 L35.6529134,29.2561845 L35.6529134,22.8546161 C35.6529134,22.3487057 35.5186751,21.955199 35.2503874,21.6746589 C34.9819108,21.3946817 34.5927897,21.2543179 34.0839681,21.2543179 C32.9966569,21.2543179 32.4530957,21.8013241 32.4530957,22.895712 L32.4530957,29.2561845 L32.4530957,29.2561845 Z" id="Fill-3" fill="#FFFFFF"></path>
                        <path d="M44.3847643,22.7314787 L44.3847643,22.9572244 L47.9355651,22.9572244 L47.9355651,22.5674707 C47.9355651,22.0065781 47.7875443,21.5552745 47.4916914,21.2131845 C47.1956497,20.8714698 46.7587617,20.7001433 46.1808385,20.7001433 C44.9836445,20.7001433 44.3847643,21.3771925 44.3847643,22.7314787 L44.3847643,22.7314787 Z M51.1146146,24.9681057 L44.3847643,24.9681057 L44.3847643,25.2141178 C44.3847643,25.7614994 44.5465677,26.2092376 44.8701745,26.5580831 C45.1932148,26.9069286 45.6508711,27.0812575 46.2427656,27.0812575 C47.1233385,27.0812575 47.7084362,26.7395428 47.9974922,26.0555504 L51.0526875,26.0555504 C50.8599206,27.054048 50.3163594,27.8784042 49.4220039,28.5278686 C48.5272708,29.1777083 47.4675247,29.5025343 46.2427656,29.5025343 C44.6600378,29.5025343 43.3973294,29.0714972 42.4548294,28.2097981 C41.511763,27.348099 41.040513,26.1580085 41.040513,24.6397143 L41.040513,23.3060699 C41.040513,21.7742647 41.4911836,20.5498338 42.3927135,19.6333403 C43.2938659,18.7170345 44.5499661,18.2584124 46.1600703,18.2584124 C47.7292044,18.2584124 48.9469779,18.7099037 49.813957,19.6126986 C50.681125,20.5154935 51.1146146,21.644034 51.1146146,22.9983202 L51.1146146,24.9681057 Z" id="Fill-5" fill="#FFFFFF"></path>
                        <path d="M25.455222,37.6271255 C25.455222,36.9296222 25.2590566,36.3756728 24.8669147,35.9652773 C24.474584,35.5550695 23.9138418,35.349778 23.1843105,35.349778 L20.3562441,35.349778 L20.3562441,39.8226567 L23.1843105,39.8226567 C23.9138418,39.8226567 24.474584,39.6244959 24.8669147,39.2276114 C25.2590566,38.8311023 25.455222,38.297607 25.455222,37.6271255 L25.455222,37.6271255 Z M25.1455866,46.8808202 L22.6890827,42.6132331 L20.3562441,42.6132331 L20.3562441,46.8808202 L16.8056322,46.8808202 L16.8056322,32.5182934 L23.5972207,32.5182934 C25.3036139,32.5182934 26.6320254,32.9868611 27.5816999,33.923621 C28.5309967,34.8609439 29.0060228,36.0816217 29.0060228,37.5862173 C29.0060228,38.5986012 28.7685098,39.4912628 28.2938613,40.2638271 C27.8188353,41.0367666 27.1616152,41.6282465 26.3222012,42.0386419 L29.2743105,46.8808202 L25.1455866,46.8808202 Z" id="Fill-7" fill="#FFFFFF"></path>
                        <path d="M33.9189928,40.3561895 L33.9189928,40.5819352 L37.4697936,40.5819352 L37.4697936,40.1919938 C37.4697936,39.6311013 37.3217728,39.1799853 37.0259199,38.8377076 C36.7298783,38.4959929 36.2929902,38.3248541 35.7150671,38.3248541 C34.517873,38.3248541 33.9189928,39.0019033 33.9189928,40.3561895 L33.9189928,40.3561895 Z M40.6488431,42.5926289 L33.9189928,42.5926289 L33.9189928,42.8388286 C33.9189928,43.3860225 34.0807962,43.8339484 34.404403,44.1827939 C34.7274434,44.5314518 35.1850996,44.7059683 35.7769941,44.7059683 C36.6575671,44.7059683 37.2426647,44.3642536 37.5317207,43.6800736 L40.586916,43.6800736 C40.3941491,44.6787588 39.8505879,45.5029274 38.9562324,46.1523918 C38.0614993,46.8022315 37.0017533,47.1270575 35.7769941,47.1270575 C34.1942663,47.1270575 32.9315579,46.6962079 31.9890579,45.8345089 C31.0459915,44.9728098 30.5747415,43.7825317 30.5747415,42.2644251 L30.5747415,40.930593 C30.5747415,39.3987878 31.0254121,38.174357 31.9269421,37.2578635 C32.8280944,36.3417452 34.0841947,35.8831232 35.6942988,35.8831232 C37.2634329,35.8831232 38.4812064,36.3346145 39.3481855,37.2374094 C40.2153535,38.1402043 40.6488431,39.2687448 40.6488431,40.623031 L40.6488431,42.5926289 Z" id="Fill-9" fill="#FFFFFF"></path>
                        <path d="M46.7181504,46.880914 L43.2500449,46.880914 L43.2500449,38.7966681 L41.9909238,38.7966681 L41.9909238,36.1293792 L43.2500449,36.1293792 L43.2500449,35.3703259 C43.2500449,34.1669121 43.5183327,33.2875738 44.0552858,32.7336244 C44.5920501,32.1798626 45.4932025,31.9027003 46.759498,31.9027003 L48.7825124,31.9027003 L48.7825124,34.611085 L47.6472454,34.611085 C47.3168418,34.611085 47.0795176,34.6797657 46.9348952,34.8161889 C46.7904616,34.953175 46.7181504,35.178733 46.7181504,35.4932381 L46.7181504,36.1293792 L48.658847,36.1293792 L48.658847,38.7966681 L46.7181504,38.7966681 L46.7181504,46.880914 Z" id="Fill-11" fill="#FFFFFF"></path>
                        <path d="M56.771748,36.1293229 L60.2398535,36.1293229 L60.2398535,46.8808577 L56.9161816,46.8808577 L56.9161816,45.6292173 C56.3516634,46.6279025 55.3472363,47.1270575 53.902334,47.1270575 C52.7183561,47.1270575 51.8068197,46.7648887 51.1667806,46.0396128 C50.5269303,45.3147122 50.2070996,44.3231578 50.2070996,43.0643866 L50.2070996,36.1293229 L53.6752051,36.1293229 L53.6752051,42.6335371 C53.6752051,43.1398228 53.8022689,43.5331419 54.0571517,43.8134943 C54.3114681,44.0940344 54.6794434,44.234023 55.1614551,44.234023 C56.2349837,44.234023 56.771748,43.6872044 56.771748,42.5926289 L56.771748,36.1293229 Z" id="Fill-13" fill="#FFFFFF"></path>
                        <path d="M69.5501374,40.5408393 C69.5501374,39.9527372 69.3643561,39.4944905 68.9927936,39.1659114 C68.6210423,38.8377076 68.1599876,38.6736996 67.6094408,38.6736996 C66.9765762,38.6736996 66.4981517,38.8515939 66.1747337,39.2070072 C65.8513158,39.5629835 65.6897012,40.0277981 65.6897012,40.6023893 L65.6897012,41.628284 C65.6897012,42.2165738 65.8513158,42.6849538 66.1747337,43.0336116 C66.4981517,43.3824571 66.9695905,43.556786 67.5890501,43.556786 C68.1805671,43.556786 68.6554043,43.3895879 69.013373,43.0542534 C69.3709642,42.7191065 69.5501374,42.2644251 69.5501374,41.689834 L69.5501374,40.5408393 Z M73.0182428,36.1293229 L73.0182428,46.552654 C73.0182428,47.7288582 72.5124421,48.7136571 71.5008405,49.5072384 C70.4894277,50.3004444 69.1919798,50.6971413 67.6094408,50.6971413 C66.2606387,50.6971413 65.0942194,50.3860139 64.1105605,49.7635714 C63.1265241,49.1411289 62.5448249,48.3032617 62.3660293,47.2501573 L65.7310488,47.2501573 C65.9921621,47.8380718 66.6187962,48.1323105 67.6094408,48.1323105 C68.2151178,48.1323105 68.6897663,47.9784357 69.0339525,47.6708737 C69.3777611,47.363124 69.5501374,46.9559186 69.5501374,46.4500082 L69.5501374,45.1779137 C69.2746751,45.5061175 68.8793236,45.7830922 68.3629499,46.0088378 C67.8469538,46.2345834 67.2998053,46.3473624 66.7218822,46.3473624 C65.3043561,46.3473624 64.2066608,45.9097574 63.4291738,45.0341721 C62.651498,44.1589621 62.2629434,43.0987269 62.2629434,41.8540297 L62.2629434,40.3766436 C62.2629434,39.1045491 62.651498,38.0377462 63.4291738,37.1756718 C64.2066608,36.3139727 65.3109642,35.8831232 66.7424616,35.8831232 C67.4306452,35.8831232 68.049916,36.0268648 68.6004629,36.3139727 C69.1506322,36.6014559 69.5223835,36.9161487 69.7151504,37.2578635 L69.7151504,36.1293229 L73.0182428,36.1293229 Z" id="Fill-15" fill="#FFFFFF"></path>
                        <path d="M78.3852253,40.3561895 L78.3852253,40.5819352 L81.936026,40.5819352 L81.936026,40.1919938 C81.936026,39.6311013 81.7880052,39.1799853 81.4921523,38.8377076 C81.1961107,38.4959929 80.7592227,38.3248541 80.1812995,38.3248541 C78.9841055,38.3248541 78.3852253,39.0019033 78.3852253,40.3561895 L78.3852253,40.3561895 Z M85.1150755,42.5926289 L78.3852253,42.5926289 L78.3852253,42.8388286 C78.3852253,43.3860225 78.5470286,43.8339484 78.8706354,44.1827939 C79.1936758,44.5314518 79.651332,44.7059683 80.2432266,44.7059683 C81.1237995,44.7059683 81.7088971,44.3642536 81.9979531,43.6800736 L85.0531484,43.6800736 C84.8603815,44.6787588 84.3168203,45.5029274 83.4224648,46.1523918 C82.5277318,46.8022315 81.4679857,47.1270575 80.2432266,47.1270575 C78.6604987,47.1270575 77.3977904,46.6962079 76.4552904,45.8345089 C75.512224,44.9728098 75.040974,43.7825317 75.040974,42.2644251 L75.040974,40.930593 C75.040974,39.3987878 75.4916445,38.174357 76.3931745,37.2578635 C77.2943268,36.3417452 78.5504271,35.8831232 80.1605312,35.8831232 C81.7296654,35.8831232 82.9474388,36.3346145 83.814418,37.2374094 C84.6815859,38.1402043 85.1150755,39.2687448 85.1150755,40.623031 L85.1150755,42.5926289 Z" id="Fill-17" fill="#FFFFFF"></path>
                        <path d="M90.110571,40.3561895 L90.110571,40.5819352 L93.6613717,40.5819352 L93.6613717,40.1919938 C93.6613717,39.6311013 93.5133509,39.1799853 93.217498,38.8377076 C92.9214564,38.4959929 92.4845684,38.3248541 91.9066452,38.3248541 C90.7094512,38.3248541 90.110571,39.0019033 90.110571,40.3561895 L90.110571,40.3561895 Z M96.8404212,42.5926289 L90.110571,42.5926289 L90.110571,42.8388286 C90.110571,43.3860225 90.2723743,43.8339484 90.5959811,44.1827939 C90.9190215,44.5314518 91.3766777,44.7059683 91.9685723,44.7059683 C92.8491452,44.7059683 93.4342428,44.3642536 93.7234876,43.6800736 L96.7784941,43.6800736 C96.5857272,44.6787588 96.042166,45.5029274 95.1478105,46.1523918 C94.2530775,46.8022315 93.1933314,47.1270575 91.9685723,47.1270575 C90.3858444,47.1270575 89.1231361,46.6962079 88.1806361,45.8345089 C87.2375697,44.9728098 86.7663197,43.7825317 86.7663197,42.2644251 L86.7663197,40.930593 C86.7663197,39.3987878 87.2169902,38.174357 88.1185202,37.2578635 C89.0196725,36.3417452 90.2757728,35.8831232 91.885877,35.8831232 C93.4550111,35.8831232 94.6727845,36.3346145 95.5397637,37.2374094 C96.4069316,38.1402043 96.8404212,39.2687448 96.8404212,40.623031 L96.8404212,42.5926289 Z" id="Fill-19" fill="#FFFFFF"></path>
                        <polygon id="Fill-21" fill="#FFFFFF" points="29.0678177 64.5056248 25.6822187 64.5056248 20.2737943 56.1136292 20.2737943 64.5056248 16.8056888 64.5056248 16.8056888 50.143098 20.1703307 50.143098 25.5997122 58.534906 25.5997122 50.143098 29.0678177 50.143098"></polygon>
                        <path d="M36.4993132,62.5564248 C37.0360775,62.5564248 37.4865592,62.4367026 37.8515137,62.1972584 C38.2160905,61.9581894 38.3986621,61.6607607 38.3986621,61.3047844 C38.3986621,60.9491834 38.2230762,60.6517546 37.8722819,60.4123103 C37.52111,60.1730537 37.0774251,60.0531439 36.5406608,60.0531439 C35.2607715,60.0531439 34.6207324,60.4704825 34.6207324,61.3047844 C34.6207324,61.7014812 34.7927311,62.0094185 35.1367285,62.2280334 C35.4807259,62.4470235 35.9347949,62.5564248 36.4993132,62.5564248 L36.4993132,62.5564248 Z M41.8667676,64.5055685 L38.5430957,64.5055685 L38.5430957,63.6027736 C37.8822884,64.3689577 36.8157454,64.7517683 35.343278,64.7517683 C34.1181413,64.7517683 33.1514746,64.4372631 32.4429004,63.8078775 C31.7339486,63.1788672 31.3797559,62.3648318 31.3797559,61.3661466 C31.3797559,60.2858327 31.754528,59.4580987 32.5048275,58.8836952 C33.2547493,58.3091041 34.276735,58.0219962 35.5704069,58.0219962 C36.795166,58.0219962 37.7378548,58.2884623 38.3986621,58.8219576 L38.3986621,57.5705049 C38.3986621,57.1602971 38.264235,56.8251502 37.9959473,56.5650642 C37.7276595,56.3053535 37.3591178,56.1753105 36.8916439,56.1753105 C36.1205762,56.1753105 35.597972,56.4352088 35.3225098,56.9550055 L32.1642285,56.9550055 C32.3839941,55.874504 32.9281217,55.0298813 33.7951009,54.4211374 C34.6620801,53.8125812 35.7284342,53.5080216 36.9947298,53.5080216 C38.5223275,53.5080216 39.716123,53.8945852 40.5764941,54.6671495 C41.4362988,55.440089 41.8667676,56.4900033 41.8667676,57.8167046 L41.8667676,64.5055685 Z" id="Fill-23" fill="#FFFFFF"></path>
                        <path d="M44.6741602,50.8609804 L48.1422656,50.8609804 L48.1422656,53.7540149 L50.2273958,53.7540149 L50.2273958,56.4214915 L48.1422656,56.4214915 L48.1422656,60.9970159 C48.1422656,61.4759044 48.4035677,61.715161 48.9267383,61.715161 L50.062194,61.715161 L50.062194,64.5055498 L47.7707031,64.5055498 C46.7521159,64.5055498 45.9814258,64.225385 45.4586328,63.6643048 C44.9354622,63.1037876 44.6741602,62.3239049 44.6741602,61.3254073 L44.6741602,56.4214915 L43.2704167,56.4214915 L43.2704167,53.7540149 L44.6741602,53.7540149 L44.6741602,50.8609804 Z" id="Fill-25" fill="#FFFFFF"></path>
                        <mask id="mask-2" fill="white">
                            <use xlink:href="#path-1"></use>
                        </mask>
                        <g id="Clip-28"></g>
                        <path d="M52.2502214,64.5056436 L55.7183268,64.5056436 L55.7183268,53.7541088 L52.2502214,53.7541088 L52.2502214,64.5056436 Z M52.5908203,52.3076853 C52.240026,51.9862371 52.0644401,51.5520098 52.0644401,51.0048159 C52.0644401,50.4578096 52.240026,50.0233947 52.5908203,49.7017587 C52.9418034,49.3806858 53.4062565,49.2196802 53.9841797,49.2196802 C54.5622917,49.2196802 55.0267448,49.3806858 55.3775391,49.7017587 C55.7287109,50.0233947 55.9041081,50.4578096 55.9041081,51.0048159 C55.9041081,51.5520098 55.7287109,51.9862371 55.3775391,52.3076853 C55.0267448,52.6291336 54.5622917,52.7897639 53.9841797,52.7897639 C53.4062565,52.7897639 52.9418034,52.6291336 52.5908203,52.3076853 L52.5908203,52.3076853 Z" id="Fill-27" fill="#FFFFFF" mask="url(#mask-2)"></path>
                        <path d="M65.0077292,58.227025 C65.0077292,57.6391105 64.8493242,57.160222 64.5330807,56.7907348 C64.216082,56.4214352 63.7414336,56.2367854 63.1083802,56.2367854 C62.4753268,56.2367854 62.0004896,56.4214352 61.6840573,56.7907348 C61.3674362,57.160222 61.2094089,57.6391105 61.2094089,58.227025 L61.2094089,60.0326148 C61.2094089,60.6209046 61.3674362,61.0996054 61.6840573,61.468905 C62.0004896,61.8382046 62.4753268,62.0228544 63.1083802,62.0228544 C63.7414336,62.0228544 64.216082,61.8382046 64.5330807,61.468905 C64.8493242,61.0996054 65.0077292,60.6209046 65.0077292,60.0326148 L65.0077292,58.227025 Z M68.3727487,58.4116748 L68.3727487,59.847965 C68.3727487,61.2981415 67.9047083,62.4777234 66.9688164,63.3874615 C66.0329245,64.2971995 64.7462383,64.7516932 63.1083802,64.7516932 C61.4705221,64.7516932 60.1840247,64.2971995 59.2481328,63.3874615 C58.3122409,62.4777234 57.8443893,61.2981415 57.8443893,59.847965 L57.8443893,58.4116748 C57.8443893,56.9620613 58.3122409,55.782104 59.2481328,54.872366 C60.1840247,53.9628156 61.4705221,53.5079466 63.1083802,53.5079466 C64.7462383,53.5079466 66.0329245,53.9628156 66.9688164,54.872366 C67.9047083,55.782104 68.3727487,56.9620613 68.3727487,58.4116748 L68.3727487,58.4116748 Z" id="Fill-29" fill="#FFFFFF" mask="url(#mask-2)"></path>
                        <path d="M73.8638307,64.5056248 L70.3957253,64.5056248 L70.3957253,53.75409 L73.7193971,53.75409 L73.7193971,55.0057304 C74.283349,54.0074205 75.2881536,53.5078903 76.7332448,53.5078903 C77.9580039,53.5078903 78.8972943,53.870622 79.5511159,54.595335 C80.2047487,55.3206109 80.5317539,56.3121653 80.5317539,57.5705612 L80.5317539,64.5056248 L77.0636484,64.5056248 L77.0636484,58.1038688 C77.0636484,57.598146 76.9294102,57.2046393 76.6611224,56.9240992 C76.3926458,56.6439344 76.0035247,56.5035706 75.4947031,56.5035706 C74.4073919,56.5035706 73.8638307,57.0507645 73.8638307,58.1449647 L73.8638307,64.5056248 Z" id="Fill-30" fill="#FFFFFF" mask="url(#mask-2)"></path>
                    </g>
                </g>
            </g>
        </g>
    </g>
</svg>